<svg xmlns="http://www.w3.org/2000/svg" xmlns:xlink="http://www.w3.org/1999/xlink" version="1.1" width="3176.470588235294" 
height="1235.3047001718287" viewBox="0 0 3176.470588235294 1235.3047001718287">
	<g transform="scale(8.823529411764707) translate(10, 10)">
		<defs id="SvgjsDefs1845"></defs>
		<g id="SvgjsG1846" featureKey="4yrtKO-0" transform="matrix(1.5000149919100907,0,0,1.5000149919100907,214.99925040449546,-15.000149919100906)" fill="#14b8a6">
			<path xmlns="http://www.w3.org/2000/svg" d="M16.667,43.33C16.667,69.104,37.559,90,63.333,90v-6.667c-22.093,0-40-17.91-40-40.003H16.667z"></path>
			<path xmlns="http://www.w3.org/2000/svg" d="M63.333,16.667c-14.729,0-26.666,11.94-26.666,26.664C36.667,58.06,48.604,70,63.333,70v6.667  C44.922,76.667,30,61.741,30,43.33C30,24.922,44.922,10,63.333,10V16.667z"></path>
			<path xmlns="http://www.w3.org/2000/svg" d="M63.333,43.333v20c-11.048,0-20-8.955-20-20.003c0-11.045,8.952-19.997,20-19.997c11.049,0,20,8.952,20,19.997  L63.333,43.333z"></path>
		</g>
		<g id="SvgjsG1847" featureKey="Gem1BN-0" transform="matrix(5.085059178771435,0,0,5.085059178771435,-3.9663460139570095,-27.47670472370337)" fill="#111111">
			<path d="M0.78 20 l0 -2.32 l1.44 0 l0 -8.58 l-1.44 0 l0 -2.32 l6.86 0 c4.34 0 6.46 2.66 6.46 6.36 c0 3.56 -1.98 6.86 -6.44 6.86 l-6.88 0 z M5.58 17.48 l2 0 c1.98 0 2.98 -1.42 2.98 -4.2 c0 -2.72 -0.96 -3.98 -3.1 -3.98 l-1.88 0 l0 8.18 z M17.282000000000004 20 l0 -2.32 l1.48 0 l0 -8.58 l-1.48 0 l0 -2.32 l10.56 0 l0 4.26 l-2.52 0 l0 -1.74 l-3.22 0 l0 2.78 l3.78 0 l0 2.52 l-3.78 0 l0 2.88 l3.34 0 l0 -1.94 l2.52 0 l0 4.46 l-10.68 0 z M35.884 20 l-4.08 -10.9 l-1 0 l0 -2.32 l5.76 0 l0 2.32 l-1.34 0 l2.32 6.28 l2.3 -6.28 l-1.32 0 l0 -2.32 l5.52 0 l0 2.32 l-1.04 0 l-4.06 10.9 l-3.06 0 z"></path>
		</g>
		<g id="SvgjsG1848" featureKey="Gem1BN-1" transform="matrix(2.0550761467806873,0,0,2.0550761467806873,-1.6029593356927359,70.6420060258622)" fill="#111111">
			<path d="M0.78 20 l0 -2.32 l1.44 0 l0 -8.58 l-1.44 0 l0 -2.32 l6.24 0 c3.88 0 5.42 1.62 5.42 4.52 c0 2.7 -1.5 4.48 -5.7 4.48 l-1.16 0 l0 1.9 l1.64 0 l0 2.32 l-6.44 0 z M5.58 13.26 l1.14 0 c1.48 0 2.22 -0.58 2.22 -2 c0 -1.52 -0.84 -1.98 -2.04 -1.98 l-1.32 0 l0 3.98 z M15.382 20 l0 -2.32 l1.44 0 l0 -8.58 l-1.44 0 l0 -2.32 l6.62 0 c3.66 0 4.96 1.64 4.96 3.76 c0 1.98 -1.12 3.04 -2.34 3.62 c0.52 0.28 0.9 0.8 1.24 1.74 c0.28 0.78 0.4 1.5 1.7 1.5 l0.16 0 l-0.58 2.72 c-0.28 0.04 -0.54 0.06 -0.78 0.06 c-2.52 0 -3.16 -1.82 -3.66 -3.16 c-0.58 -1.82 -0.78 -1.98 -1.9 -1.98 l-0.62 0 l0 2.64 l1.44 0 l0 2.32 l-6.24 0 z M20.182000000000002 12.52 l1.74 0 c1.22 0 1.68 -0.76 1.68 -1.54 c0 -1.22 -0.56 -1.68 -1.68 -1.68 l-1.74 0 l0 3.22 z M37.044 20.28 c-4.3 0 -6.52 -2.92 -6.52 -6.92 c0 -4.1 2.32 -6.86 6.64 -6.86 c4.08 0 6.54 2.46 6.54 6.7 c0 4.1 -2.32 7.08 -6.66 7.08 z M37.104 17.5 c1.88 0 3.06 -1.24 3.06 -4.16 c0 -2.88 -1.14 -4.06 -3.02 -4.06 c-1.94 0 -3.08 1.26 -3.08 4.1 c0 2.88 1.16 4.12 3.04 4.12 z M46.906000000000006 20 l0 -2.32 l1.44 0 l0 -8.58 l-1.44 0 l0 -2.32 l6.34 0 l2.64 7.68 l2.62 -7.68 l6.22 0 l0 2.32 l-1.44 0 l0 8.58 l1.44 0 l0 2.32 l-6.04 0 l0 -2.32 l1.34 0 l0 -7.28 l-3.32 9.6 l-1.8 0 l-3.3 -9.54 l0 7.22 l1.34 0 l0 2.32 l-6.04 0 z M68.08800000000001 20 l0 -2.32 l1.44 0 l0 -8.58 l-1.44 0 l0 -2.32 l6.24 0 c3.88 0 5.42 1.62 5.42 4.52 c0 2.7 -1.5 4.48 -5.7 4.48 l-1.16 0 l0 1.9 l1.64 0 l0 2.32 l-6.44 0 z M72.888 13.26 l1.14 0 c1.48 0 2.22 -0.58 2.22 -2 c0 -1.52 -0.84 -1.98 -2.04 -1.98 l-1.32 0 l0 3.98 z M85.33000000000001 20 l0 -2.32 l1.44 0 l0 -8.38 l-2.02 0 l0 2.04 l-2.52 0 l0 -4.56 l12.44 0 l0 4.56 l-2.52 0 l0 -2.04 l-2.02 0 l0 8.38 l1.44 0 l0 2.32 l-6.24 0 z M97.29200000000002 16.34 l3.3 -0.68 c0.02 1.4 1.1 1.84 2.2 1.84 c1.04 0 1.64 -0.38 1.64 -1 c0 -2.1 -6.78 -1.14 -6.78 -5.94 c0 -2.64 2.04 -4.06 5.1 -4.06 c3 0 4.92 1.4 4.92 3.42 l0 0.16 l-3.3 0.68 c-0.02 -0.54 -0.14 -1.48 -1.7 -1.48 c-1.08 0 -1.62 0.44 -1.62 1.04 c0 2.18 6.78 1.04 6.78 5.82 c0 2.4 -1.7 4.14 -5.08 4.14 c-3.5 0 -5.46 -1.84 -5.46 -3.76 l0 -0.18 z "></path>
		</g>
	</g>
</svg>
	